<?xml version="1.0" encoding="UTF-8" standalone="no"?>
<svg
   width="500"
   height="180"
   viewBox="0 0 500 180"
   fill="none"
   version="1.1"
   id="svg15"
   sodipodi:docname="home-assistant-wordmark-color-on-light.svg"
   inkscape:version="1.3 (0e150ed6c4, 2023-07-21)"
   xmlns:inkscape="http://www.inkscape.org/namespaces/inkscape"
   xmlns:sodipodi="http://sodipodi.sourceforge.net/DTD/sodipodi-0.dtd"
   xmlns="http://www.w3.org/2000/svg"
   xmlns:svg="http://www.w3.org/2000/svg">
  <defs
     id="defs15" />
  <sodipodi:namedview
     id="namedview15"
     pagecolor="#ffffff"
     bordercolor="#666666"
     borderopacity="1.0"
     inkscape:showpageshadow="2"
     inkscape:pageopacity="0.0"
     inkscape:pagecheckerboard="0"
     inkscape:deskcolor="#d1d1d1"
     inkscape:zoom="1.2715543"
     inkscape:cx="246.94188"
     inkscape:cy="128.18957"
     inkscape:window-width="1920"
     inkscape:window-height="974"
     inkscape:window-x="-9"
     inkscape:window-y="-9"
     inkscape:window-maximized="1"
     inkscape:current-layer="svg15" />
  <path
     d="m 75.572689,119.62994 c 0,2.36455 -1.93463,4.29918 -4.299176,4.29918 H 11.085086 c -2.3645464,0 -4.2991744,-1.93463 -4.2991744,-4.29918 V 93.834911 c 0,-2.364545 1.3671375,-5.666311 3.0409493,-7.340122 L 38.138351,58.183298 c 1.670944,-1.670934 4.408086,-1.670934 6.079032,0 l 28.314356,28.314357 c 1.670945,1.670945 3.04095,4.975576 3.04095,7.340122 v 25.795033 z"
     fill="#f2f4f9"
     id="path1"
     style="stroke-width:0.999999" />
  <path
     d="M 72.531739,86.494789 44.22025,58.183298 c -1.670948,-1.670934 -4.408088,-1.670934 -6.079032,0 L 9.8268609,86.494789 c -1.6709453,1.670944 -3.0409493,4.975577 -3.0409493,7.340122 v 25.795029 c 0,2.36455 1.934628,4.29918 4.2991744,4.29918 h 26.44565 l -11.64503,-11.64504 c -0.599017,0.20637 -1.238161,0.32388 -1.9031,0.32388 -3.238711,0 -5.875538,-2.63682 -5.875538,-5.87554 0,-3.2387 2.636827,-5.87553 5.875538,-5.87553 3.238711,0 5.875537,2.63683 5.875537,5.87553 0,0.6678 -0.117511,1.30696 -0.323871,1.90597 l 9.065523,9.06552 V 84.491374 c -1.948958,-0.957284 -3.296033,-2.957833 -3.296033,-5.270787 0,-3.238711 2.636826,-5.875536 5.875539,-5.875536 3.238711,0 5.875537,2.636825 5.875537,5.875536 0,2.312954 -1.347074,4.313503 -3.296033,5.270787 v 23.292916 l 9.016799,-9.016794 c -0.177699,-0.561758 -0.275147,-1.157911 -0.275147,-1.77699 0,-3.238713 2.636826,-5.875539 5.875538,-5.875539 3.238712,0 5.875537,2.636826 5.875537,5.875539 0,3.238704 -2.636825,5.875534 -5.875537,5.875534 -0.716531,0 -1.398664,-0.13471 -2.032078,-0.36973 l -12.585112,12.58511 v 8.85056 h 27.514708 c 2.364546,0 4.299176,-1.93463 4.299176,-4.29917 V 93.837777 c 0,-2.364546 -1.367139,-5.66631 -3.04095,-7.340122 z"
     fill="#18bcf2"
     id="path2"
     style="stroke-width:0.999999" />
  <path
     d="m 98.513075,68.553878 h 7.096505 v 17.483193 l 18.44632,0.05732 V 68.553878 h 7.16529 V 110.39904 H 124.0559 V 92.40558 l -18.44632,-0.05733 v 18.05653 h -7.107971 z"
     fill="#1d2126"
     id="path3"
     style="stroke-width:0.999999" />
  <path
     d="m 152.04065,81.345354 c 4.32784,0 7.85402,1.390065 10.57884,4.170081 2.72481,2.780135 4.08708,6.354181 4.08708,10.72214 0,4.347045 -1.36227,7.910475 -4.08708,10.690615 -2.72482,2.78012 -6.251,4.17018 -10.57884,4.17018 -4.36796,0 -7.91335,-1.39006 -10.63615,-4.17018 -2.72282,-2.78014 -4.08507,-6.34357 -4.08708,-10.690615 0,-4.394615 1.36226,-7.972386 4.08708,-10.733601 2.72481,-2.760932 6.2702,-4.147156 10.63615,-4.15862 z m 0,23.651066 c 2.31381,0 4.19399,-0.8157 5.64051,-2.44766 1.44654,-1.63168 2.16879,-3.754609 2.1668,-6.368505 0,-2.609885 -0.72227,-4.723359 -2.1668,-6.339849 -1.44452,-1.616489 -3.32469,-2.422728 -5.64051,-2.419004 -2.36942,0 -4.27996,0.806526 -5.73222,2.419004 -1.45228,1.612762 -2.18027,3.725949 -2.18399,6.339849 0,2.613896 0.728,4.736825 2.18399,6.368505 1.45598,1.63196 3.36682,2.44766 5.73222,2.44766 z"
     fill="#1d2126"
     id="path4"
     style="stroke-width:0.999999" />
  <path
     d="m 215.0608,92.40558 v 17.99634 h -6.59207 V 93.437383 c 0,-1.956412 -0.50356,-3.4852 -1.51043,-4.585788 -1.00687,-1.100587 -2.37888,-1.651742 -4.11574,-1.653747 -1.84579,0 -3.31983,0.601883 -4.42243,1.805653 -1.10258,1.203768 -1.65288,2.888185 -1.65088,5.052961 v 16.336848 h -6.64653 V 93.437383 c 0,-1.956412 -0.49009,-3.4852 -1.47031,-4.585788 -0.98021,-1.100587 -2.33788,-1.651742 -4.07275,-1.653747 -1.84577,0 -3.32842,0.601883 -4.44821,1.805653 -1.11979,1.203768 -1.67954,2.888185 -1.67954,5.052961 v 16.336848 h -6.77264 V 82.13067 h 6.30546 l 0.22356,2.714097 c 1.64314,-2.407425 4.31837,-3.611192 8.02513,-3.611192 2.16477,0 4.04035,0.448059 5.62617,1.344209 1.58411,0.894857 2.84663,2.265549 3.60844,3.917865 0.68444,-1.633973 1.8948,-2.992628 3.43935,-3.860544 1.59356,-0.934354 3.49179,-1.40153 5.69497,-1.40153 3.21004,0 5.75717,0.988811 7.64105,2.966314 1.88391,1.97762 2.82313,4.713041 2.8174,8.205691 z"
     fill="#1d2126"
     id="path5"
     style="stroke-width:0.999999" />
  <path
     d="m 247.90649,98.756891 h -21.66211 c 0.22356,2.126659 1.02608,3.750879 2.40755,4.872399 1.38146,1.12179 3.13552,1.67954 5.26217,1.67381 3.45081,0 5.86695,-1.43306 7.24843,-4.29918 l 5.65484,2.23844 c -1.01546,2.42387 -2.7747,4.46255 -5.0243,5.82107 -2.2929,1.40268 -4.91912,2.10288 -7.87897,2.10087 -4.18078,0 -7.57227,-1.36713 -10.17469,-4.10141 -2.60244,-2.73428 -3.90452,-6.32149 -3.90652,-10.762261 0,-4.440471 1.31182,-8.050917 3.93517,-10.83105 2.62336,-2.780015 6.05123,-4.170084 10.28363,-4.170084 4.16159,0 7.51123,1.370951 10.0486,4.112763 2.53737,2.742012 3.8062,6.353317 3.8062,10.833917 z m -21.55033,-4.760617 h 14.66592 c -0.13185,-2.292893 -0.82631,-4.042084 -2.08366,-5.247859 -1.25737,-1.205489 -2.95125,-1.801639 -5.08163,-1.788456 -2.10172,0 -3.82139,0.610484 -5.15901,1.831449 -1.33761,1.220965 -2.11805,2.956111 -2.34162,5.204866 z"
     fill="#1d2126"
     id="path6"
     style="stroke-width:0.999999" />
  <path
     d="m 291.5431,100.65999 h -15.92414 l -3.43934,9.74479 h -7.33439 l 15.11303,-41.845168 h 7.33439 l 15.14169,41.845168 h -7.50063 z m -2.06934,-6.01884 -5.84973,-16.738002 -5.90707,16.738002 z"
     fill="#1d2126"
     id="path7"
     style="stroke-width:0.999999" />
  <path
     d="m 315.71304,105.69575 c 1.39869,0 2.505,-0.27514 3.31609,-0.82544 0.39841,-0.26683 0.71942,-0.63284 0.93437,-1.06218 0.21209,-0.42905 0.31241,-0.90656 0.28377,-1.38548 0,-1.50929 -1.01751,-2.517301 -3.04956,-3.023751 l -3.89219,-1.034667 c -5.35104,-1.455985 -8.02515,-4.208315 -8.02515,-8.257277 0,-2.592688 0.94297,-4.710749 2.82602,-6.354066 1.88305,-1.643257 4.42242,-2.463912 7.61238,-2.461991 2.85467,0 5.24215,0.6525 7.16532,1.957557 0.9286,0.604062 1.72252,1.393104 2.33015,2.317714 0.61045,0.924895 1.02031,1.965296 1.2095,3.056138 l -6.07332,1.433056 c -0.0516,-0.48208 -0.20349,-0.948396 -0.44711,-1.367708 -0.24361,-0.419314 -0.57321,-0.782451 -0.96588,-1.065624 -0.87989,-0.617935 -1.93462,-0.932918 -3.00941,-0.897092 -1.21236,0 -2.19259,0.303805 -2.93778,0.911423 -0.35826,0.278872 -0.64774,0.637998 -0.84262,1.048713 -0.19491,0.410714 -0.28949,0.861553 -0.27803,1.315833 -0.008,0.367722 0.063,0.733152 0.20636,1.071066 0.14617,0.338203 0.36112,0.641436 0.63343,0.889356 0.56175,0.521636 1.43018,0.941235 2.60243,1.258226 l 3.83483,0.95155 c 2.5566,0.691881 4.50555,1.736866 5.84974,3.135532 0.6621,0.68672 1.17798,1.49783 1.5248,2.386614 0.34395,0.888488 0.5073,1.836888 0.48149,2.789588 0,2.6523 -0.99741,4.76062 -2.99508,6.32551 -1.99769,1.5649 -4.74916,2.34936 -8.25727,2.35307 -3.2473,0 -5.8526,-0.71365 -7.81018,-2.14097 -0.94582,-0.67096 -1.74546,-1.53109 -2.34161,-2.5262 -0.59901,-0.99511 -0.98308,-2.10344 -1.12925,-3.25475 l 6.18508,-1.092 c 0.0372,0.52078 0.19204,1.02665 0.44997,1.4795 0.26082,0.45313 0.61908,0.84177 1.04901,1.13727 0.90568,0.62194 2.08651,0.93148 3.5597,0.93148 z"
     fill="#1d2126"
     id="path8"
     style="stroke-width:0.999999" />
  <path
     d="m 341.39345,105.69575 c 1.40155,0 2.505,-0.28661 3.31896,-0.82544 0.3984,-0.2674 0.7194,-0.63398 0.93149,-1.06303 0.21209,-0.42906 0.30953,-0.90628 0.28372,-1.38463 0,-1.50929 -1.01745,-2.517301 -3.04953,-3.023751 l -3.8893,-1.034667 c -5.35103,-1.455985 -8.02515,-4.208315 -8.02515,-8.257277 0,-2.592688 0.94296,-4.710749 2.82601,-6.354066 1.88304,-1.643257 4.4224,-2.463912 7.61238,-2.461991 2.85466,0 5.24214,0.6525 7.16532,1.957557 0.92861,0.604432 1.72252,1.393677 2.33015,2.317999 0.61046,0.92461 1.02319,1.965011 1.21236,3.055853 l -6.07617,1.433056 c -0.0516,-0.48208 -0.20351,-0.948396 -0.4471,-1.367708 -0.24362,-0.419314 -0.57322,-0.782451 -0.96591,-1.065624 -0.87987,-0.617935 -1.9346,-0.932918 -3.00942,-0.897092 -1.21236,0 -2.19256,0.303805 -2.93775,0.911423 -0.35827,0.27916 -0.64776,0.63857 -0.84263,1.048999 -0.19205,0.410715 -0.28949,0.861267 -0.27803,1.315547 -0.008,0.367722 0.063,0.733152 0.20923,1.071066 0.1433,0.338203 0.35826,0.641436 0.63055,0.889356 0.57322,0.521636 1.43305,0.940086 2.60531,1.258226 l 3.83484,0.95155 c 2.55372,0.691881 4.50269,1.736866 5.84974,3.135532 0.65923,0.687007 1.17798,1.498405 1.52193,2.3869 0.34391,0.888502 0.51015,1.836602 0.48436,2.789302 0,2.6523 -0.99742,4.76062 -2.99508,6.32551 -1.9977,1.5649 -4.74917,2.34936 -8.25728,2.35307 -3.24731,0 -5.8526,-0.71365 -7.81018,-2.14097 -0.94582,-0.67096 -1.74547,-1.53109 -2.34161,-2.5262 -0.59902,-0.99511 -0.98307,-2.10344 -1.12925,-3.25475 l 6.18794,-1.092 c 0.0372,0.52078 0.18917,1.02636 0.44997,1.4795 0.25797,0.45284 0.61622,0.84177 1.04615,1.13727 0.89996,0.62194 2.08079,0.93148 3.55398,0.93148 z"
     fill="#1d2126"
     id="path9"
     style="stroke-width:0.999999" />
  <path
     d="m 356.99945,72.342884 c -0.008,-0.565886 0.0945,-1.128017 0.3038,-1.653032 0.21211,-0.525015 0.52737,-1.002166 0.92577,-1.403194 0.40124,-0.400997 0.87702,-0.717646 1.40152,-0.931171 0.52451,-0.213525 1.08627,-0.319543 1.65089,-0.311776 0.56176,-0.0086 1.11779,0.09866 1.63654,0.315158 0.51592,0.216478 0.98596,0.537539 1.37288,0.943066 0.79965,0.805379 1.24962,1.894387 1.24962,3.029485 0,1.135068 -0.44997,2.224106 -1.24962,3.029484 -0.38692,0.409883 -0.85124,0.734958 -1.37001,0.954531 -0.51876,0.219602 -1.07765,0.328887 -1.63941,0.32089 -0.56462,0.0073 -1.12352,-0.102146 -1.64516,-0.321636 -0.52162,-0.219487 -0.9888,-0.544217 -1.37859,-0.953785 -0.40126,-0.392142 -0.72227,-0.861698 -0.93722,-1.38035 -0.21781,-0.51868 -0.32674,-1.075768 -0.32101,-1.63767 z m 7.66974,9.796383 v 28.268363 h -6.77552 V 82.13067 Z"
     fill="#1d2126"
     id="path10"
     style="stroke-width:0.999999" />
  <path
     d="m 381.05762,105.69575 c 1.39867,0 2.505,-0.27514 3.31609,-0.82544 0.39841,-0.26712 0.71943,-0.63341 0.93437,-1.06246 0.21208,-0.42906 0.30952,-0.90656 0.28373,-1.3852 0,-1.50929 -1.01747,-2.517301 -3.0524,-3.023751 l -3.88931,-1.034667 c -5.35104,-1.455985 -8.02514,-4.208315 -8.02514,-8.257277 0,-2.592688 0.94297,-4.710749 2.82601,-6.354066 1.88301,-1.643257 4.42239,-2.463912 7.61524,-2.461991 2.85467,0 5.24215,0.6525 7.16531,1.957557 0.92575,0.60498 1.71966,1.394248 2.33016,2.318859 0.60759,0.924609 1.02032,1.964437 1.20948,3.054993 l -6.07329,1.433056 c -0.0516,-0.48208 -0.2035,-0.948396 -0.44711,-1.367708 -0.24362,-0.419314 -0.57324,-0.782451 -0.9659,-1.065624 -0.87989,-0.617361 -1.93461,-0.932059 -3.00943,-0.897092 -1.21236,0 -2.19256,0.303805 -2.94061,0.911423 -0.35826,0.279448 -0.64489,0.638858 -0.8398,1.049571 -0.19488,0.410715 -0.28945,0.860981 -0.278,1.314975 -0.008,0.367722 0.063,0.733152 0.20637,1.071066 0.14617,0.338203 0.36113,0.641436 0.63339,0.889356 0.5589,0.521636 1.42736,0.941235 2.60247,1.258226 l 3.83484,0.95155 c 2.55659,0.691881 4.50555,1.736866 5.84975,3.135532 0.66208,0.68672 1.17797,1.49783 1.52479,2.386614 0.3439,0.888488 0.50729,1.836888 0.48149,2.789588 0,2.6523 -0.99741,4.76062 -2.99508,6.32551 -1.9977,1.5649 -4.74917,2.34936 -8.25729,2.35307 -3.24732,0 -5.84976,-0.71365 -7.8073,-2.14097 -0.94869,-0.6701 -1.74548,-1.52994 -2.34448,-2.52534 -0.59615,-0.99511 -0.9802,-2.10373 -1.12638,-3.25561 l 6.18507,-1.092 c 0.0372,0.52078 0.18916,1.02636 0.44997,1.4795 0.25796,0.45284 0.61622,0.84177 1.04615,1.13727 0.89995,0.62194 2.0808,0.93148 3.55684,0.93148 z"
     fill="#1d2126"
     id="path11"
     style="stroke-width:0.999999" />
  <path
     d="m 412.58777,110.39904 c -1.61363,0.38922 -3.26738,0.60533 -4.92685,0.64488 -2.85468,0 -5.07878,-0.78417 -6.67519,-2.35307 -1.59644,-1.56864 -2.39322,-3.90079 -2.39322,-6.99619 V 87.868519 h -4.3393 v -5.732116 h 4.3393 v -8.821906 h 6.7182 v 8.816173 h 6.52039 v 5.732117 h -6.52039 v 12.610903 c 0,3.05729 1.1837,4.58578 3.55398,4.58578 0.9802,-0.041 1.94896,-0.2396 2.86612,-0.58754 z"
     fill="#1d2126"
     id="path12"
     style="stroke-width:0.999999" />
  <path
     d="m 435.27307,110.39904 c -0.24362,-1.05817 -0.40411,-2.13467 -0.47578,-3.21864 -0.87991,1.26224 -2.08366,2.26337 -3.4852,2.89763 -1.63654,0.74635 -3.41928,1.11464 -5.21917,1.07768 -3.09828,0 -5.5832,-0.82545 -7.45194,-2.47633 -1.8687,-1.65088 -2.80017,-3.88531 -2.79731,-6.70385 0,-2.762927 0.92002,-4.92283 2.7572,-6.480279 1.83717,-1.55716 4.35075,-2.336745 7.54075,-2.338748 h 8.49805 v -1.089126 c 0,-1.77298 -0.51879,-3.09827 -1.55345,-3.975303 -1.03467,-0.877032 -2.48493,-1.315546 -4.35077,-1.315546 -3.30177,0 -5.67204,1.380607 -7.11084,4.141535 l -4.92397,-2.88331 c 2.38749,-4.495876 6.5204,-6.743855 12.3988,-6.743855 3.5626,0 6.48031,0.91429 8.75888,2.742757 2.27855,1.828582 3.42501,4.804757 3.43932,8.927951 v 11.252364 c 0,3.18913 0.16625,5.25072 0.50158,6.18507 z m -0.57322,-12.567904 h -6.97039 c -1.58498,0 -2.81452,0.363997 -3.69443,1.091991 -0.43566,0.364283 -0.77957,0.824006 -1.00887,1.343633 -0.2293,0.51934 -0.33246,1.08482 -0.3067,1.65146 0,1.32414 0.44715,2.33216 1.34423,3.02374 0.89709,0.69074 2.17251,1.03467 3.83487,1.03467 1.99481,0 3.62848,-0.6294 4.89816,-1.88877 1.2697,-1.25908 1.906,-3.12979 1.90313,-5.611849 z"
     fill="#1d2126"
     id="path13"
     style="stroke-width:0.999999" />
  <path
     d="m 473.82807,92.961606 v 17.437434 h -6.744 V 94.41186 c 0,-2.688416 -0.63339,-4.526456 -1.90308,-5.514405 -1.19806,-0.983365 -2.70564,-1.508439 -4.25618,-1.481784 -0.89996,-0.02664 -1.79707,0.12525 -2.63682,0.446829 -0.8398,0.321863 -1.61077,0.807098 -2.26139,1.427612 -1.30407,1.249625 -1.95469,3.031489 -1.95755,5.345306 v 15.763622 h -6.77263 V 82.13067 h 6.35132 l 0.22354,3.049432 c 0.87704,-1.25536 2.08941,-2.239298 3.49954,-2.840208 1.5735,-0.708501 3.28458,-1.066422 5.00997,-1.048996 3.65716,0 6.4803,1.011738 8.46651,3.0351 1.98621,2.023479 2.98077,4.902206 2.98077,8.635608 z"
     fill="#1d2126"
     id="path14"
     style="stroke-width:0.999999" />
  <path
     d="m 495.45289,110.39904 c -1.6136,0.38579 -3.26449,0.59903 -4.92397,0.63629 -2.85465,0 -5.07875,-0.78417 -6.67519,-2.35309 -1.59642,-1.56862 -2.3932,-3.90078 -2.3932,-6.99618 V 87.868519 h -4.33931 v -5.732116 h 4.33931 v -8.821906 h 6.7153 v 8.816173 h 6.52329 v 5.732117 h -6.52329 v 12.610903 c 0,3.05729 1.18657,4.58578 3.55684,4.58578 0.9802,-0.041 1.94897,-0.2396 2.86612,-0.58754 z"
     fill="#1d2126"
     id="path15"
     style="stroke-width:0.999999" />
</svg>
